<svg width="212" height="211" viewBox="0 0 212 211" fill="none" xmlns="http://www.w3.org/2000/svg">
    <ellipse cx="106" cy="105.5" rx="106" ry="105.5" fill="#005DA0"/>
    <path d="M105.293 97.6034C105.683 97.9939 106.317 97.9939 106.707 97.6034L113.071 91.2395C113.462 90.8489 113.462 90.2158 113.071 89.8252C112.681 89.4347 112.047 89.4347 111.657 89.8252L106 95.4821L100.343 89.8252C99.9526 89.4347 99.3195 89.4347 98.9289 89.8252C98.5384 90.2158 98.5384 90.8489 98.9289 91.2395L105.293 97.6034ZM105 96V96.4482H107V96H105ZM105 96.4482V96.8963H107V96.4482H105Z"
          fill="white"/>
    <path d="M91.2258 43H89.6405C89.5468 42.544 89.3827 42.1435 89.1483 41.7983C88.9182 41.4531 88.637 41.1634 88.3046 40.929C87.9765 40.6903 87.6121 40.5114 87.2116 40.392C86.811 40.2727 86.3934 40.2131 85.9587 40.2131C85.1661 40.2131 84.4481 40.4134 83.8046 40.8139C83.1654 41.2145 82.6562 41.8047 82.2769 42.5845C81.9019 43.3643 81.7144 44.321 81.7144 45.4545C81.7144 46.5881 81.9019 47.5447 82.2769 48.3246C82.6562 49.1044 83.1654 49.6946 83.8046 50.0952C84.4481 50.4957 85.1661 50.696 85.9587 50.696C86.3934 50.696 86.811 50.6364 87.2116 50.517C87.6121 50.3977 87.9765 50.2209 88.3046 49.9865C88.637 49.7479 88.9182 49.456 89.1483 49.1108C89.3827 48.7614 89.5468 48.3608 89.6405 47.9091H91.2258C91.1064 48.5781 90.8891 49.1768 90.5738 49.7053C90.2584 50.2337 89.8664 50.6832 89.3976 51.054C88.9289 51.4205 88.4026 51.6996 87.8188 51.8913C87.2393 52.0831 86.6192 52.179 85.9587 52.179C84.8422 52.179 83.8493 51.9062 82.98 51.3608C82.1107 50.8153 81.4268 50.0398 80.9282 49.0341C80.4296 48.0284 80.1803 46.8352 80.1803 45.4545C80.1803 44.0739 80.4296 42.8807 80.9282 41.875C81.4268 40.8693 82.1107 40.0938 82.98 39.5483C83.8493 39.0028 84.8422 38.7301 85.9587 38.7301C86.6192 38.7301 87.2393 38.826 87.8188 39.0178C88.4026 39.2095 88.9289 39.4908 89.3976 39.8615C89.8664 40.228 90.2584 40.6754 90.5738 41.2038C90.8891 41.728 91.1064 42.3267 91.2258 43ZM93.0203 43.5881V42.1818H100.998V43.5881H97.776V52H96.2675V43.5881H93.0203ZM105.578 52.2301C104.955 52.2301 104.391 52.1129 103.884 51.8786C103.377 51.6399 102.974 51.2969 102.676 50.8494C102.377 50.3977 102.228 49.8523 102.228 49.2131C102.228 48.6506 102.339 48.1946 102.56 47.8452C102.782 47.4915 103.078 47.2145 103.449 47.0142C103.82 46.8139 104.229 46.6648 104.676 46.5668C105.128 46.4645 105.582 46.3835 106.038 46.3239C106.634 46.2472 107.118 46.1896 107.489 46.1513C107.864 46.1087 108.136 46.0384 108.307 45.9403C108.482 45.8423 108.569 45.6719 108.569 45.429V45.3778C108.569 44.7472 108.396 44.2571 108.051 43.9077C107.71 43.5582 107.193 43.3835 106.498 43.3835C105.778 43.3835 105.213 43.5412 104.804 43.8565C104.395 44.1719 104.107 44.5085 103.941 44.8665L102.509 44.3551C102.765 43.7585 103.106 43.294 103.532 42.9616C103.962 42.625 104.431 42.3906 104.938 42.2585C105.45 42.1222 105.953 42.054 106.447 42.054C106.762 42.054 107.124 42.0923 107.533 42.169C107.947 42.2415 108.345 42.3928 108.729 42.6229C109.117 42.853 109.438 43.2003 109.694 43.6648C109.95 44.1293 110.078 44.7514 110.078 45.5312V52H108.569V50.6705H108.492C108.39 50.8835 108.22 51.1115 107.981 51.3544C107.742 51.5973 107.425 51.804 107.028 51.9744C106.632 52.1449 106.149 52.2301 105.578 52.2301ZM105.808 50.875C106.404 50.875 106.907 50.7578 107.316 50.5234C107.729 50.2891 108.041 49.9865 108.249 49.6158C108.462 49.245 108.569 48.8551 108.569 48.446V47.0653C108.505 47.142 108.364 47.2124 108.147 47.2763C107.934 47.3359 107.687 47.3892 107.406 47.4361C107.129 47.4787 106.858 47.517 106.594 47.5511C106.334 47.581 106.123 47.6065 105.961 47.6278C105.569 47.679 105.203 47.7621 104.862 47.8771C104.525 47.9879 104.252 48.1562 104.043 48.3821C103.839 48.6037 103.737 48.9062 103.737 49.2898C103.737 49.8139 103.93 50.2102 104.318 50.4787C104.71 50.7429 105.207 50.875 105.808 50.875ZM119.402 46.4006V47.8068H113.981V46.4006H119.402ZM114.339 42.1818V52H112.831V42.1818H114.339ZM120.552 42.1818V52H119.044V42.1818H120.552ZM124.611 45.7358H127.424C128.574 45.7358 129.454 46.0277 130.064 46.6115C130.673 47.1953 130.978 47.9347 130.978 48.8295C130.978 49.4176 130.842 49.9524 130.569 50.4339C130.296 50.9112 129.896 51.2926 129.367 51.5781C128.839 51.8594 128.191 52 127.424 52H123.307V42.1818H124.816V50.5938H127.424C128.021 50.5938 128.511 50.4361 128.894 50.1207C129.278 49.8054 129.469 49.4006 129.469 48.9062C129.469 48.3864 129.278 47.9624 128.894 47.6342C128.511 47.3061 128.021 47.142 127.424 47.142H124.611V45.7358ZM55.6628 77.6818C55.4071 77.6818 55.1792 77.6605 54.9789 77.6179C54.7786 77.5795 54.6401 77.5412 54.5634 77.5028L54.9469 76.1733C55.3134 76.267 55.6373 76.3011 55.9185 76.2756C56.1998 76.25 56.449 76.1243 56.6664 75.8984C56.888 75.6768 57.0904 75.3168 57.2736 74.8182L57.5549 74.0511L53.9242 64.1818H55.5605L58.2708 72.0057H58.373L61.0833 64.1818H62.7196L58.552 75.4318C58.3645 75.9389 58.1323 76.3587 57.8553 76.6911C57.5783 77.0277 57.2566 77.277 56.8901 77.4389C56.5279 77.6009 56.1188 77.6818 55.6628 77.6818ZM71.9801 64.1818V74H70.4716V64.1818H71.9801ZM71.392 68.8608V70.267C71.0511 70.3949 70.7124 70.5078 70.3757 70.6058C70.0391 70.6996 69.6854 70.7741 69.3146 70.8295C68.9439 70.8807 68.5369 70.9062 68.0938 70.9062C66.9815 70.9062 66.0888 70.6058 65.4155 70.005C64.7464 69.4041 64.4119 68.5028 64.4119 67.3011V64.1562H65.9205V67.3011C65.9205 67.804 66.0163 68.2173 66.2081 68.5412C66.3999 68.8651 66.6598 69.1058 66.9879 69.2635C67.3161 69.4212 67.6847 69.5 68.0938 69.5C68.733 69.5 69.3104 69.4425 69.826 69.3274C70.3459 69.2081 70.8679 69.0526 71.392 68.8608ZM77.6371 74.2301C77.0149 74.2301 76.4503 74.1129 75.9432 73.8786C75.4361 73.6399 75.0334 73.2969 74.7351 72.8494C74.4368 72.3977 74.2876 71.8523 74.2876 71.2131C74.2876 70.6506 74.3984 70.1946 74.62 69.8452C74.8416 69.4915 75.1378 69.2145 75.5085 69.0142C75.8793 68.8139 76.2884 68.6648 76.7358 68.5668C77.1875 68.4645 77.6413 68.3835 78.0973 68.3239C78.6939 68.2472 79.1776 68.1896 79.5483 68.1513C79.9233 68.1087 80.196 68.0384 80.3665 67.9403C80.5412 67.8423 80.6286 67.6719 80.6286 67.429V67.3778C80.6286 66.7472 80.456 66.2571 80.1108 65.9077C79.7699 65.5582 79.2521 65.3835 78.5575 65.3835C77.8374 65.3835 77.2727 65.5412 76.8636 65.8565C76.4545 66.1719 76.1669 66.5085 76.0007 66.8665L74.5689 66.3551C74.8246 65.7585 75.1655 65.294 75.5916 64.9616C76.022 64.625 76.4908 64.3906 76.9979 64.2585C77.5092 64.1222 78.0121 64.054 78.5064 64.054C78.8217 64.054 79.1839 64.0923 79.593 64.169C80.0064 64.2415 80.4048 64.3928 80.7884 64.6229C81.1761 64.853 81.4979 65.2003 81.7536 65.6648C82.0092 66.1293 82.1371 66.7514 82.1371 67.5312V74H80.6286V72.6705H80.5518C80.4496 72.8835 80.2791 73.1115 80.0405 73.3544C79.8018 73.5973 79.4844 73.804 79.0881 73.9744C78.6918 74.1449 78.2081 74.2301 77.6371 74.2301ZM77.8672 72.875C78.4638 72.875 78.9666 72.7578 79.3757 72.5234C79.7891 72.2891 80.1001 71.9865 80.3089 71.6158C80.522 71.245 80.6286 70.8551 80.6286 70.446V69.0653C80.5646 69.142 80.424 69.2124 80.2067 69.2763C79.9936 69.3359 79.7464 69.3892 79.4652 69.4361C79.1882 69.4787 78.9176 69.517 78.6534 69.5511C78.3935 69.581 78.1825 69.6065 78.0206 69.6278C77.6286 69.679 77.2621 69.7621 76.9212 69.8771C76.5845 69.9879 76.3118 70.1562 76.103 70.3821C75.8984 70.6037 75.7962 70.9062 75.7962 71.2898C75.7962 71.8139 75.9901 72.2102 76.3778 72.4787C76.7699 72.7429 77.2663 72.875 77.8672 72.875ZM88.8791 74.2045C87.9586 74.2045 87.166 73.9872 86.5012 73.5526C85.8365 73.1179 85.3251 72.5192 84.9672 71.7564C84.6092 70.9936 84.4302 70.1222 84.4302 69.142C84.4302 68.1449 84.6135 67.2649 84.9799 66.5021C85.3507 65.7351 85.8663 65.1364 86.5268 64.706C87.1916 64.2713 87.9672 64.054 88.8535 64.054C89.5439 64.054 90.166 64.1818 90.72 64.4375C91.274 64.6932 91.7278 65.0511 92.0815 65.5114C92.4352 65.9716 92.6547 66.5085 92.7399 67.1222H91.2314C91.1163 66.6747 90.8606 66.2784 90.4643 65.9332C90.0723 65.5838 89.5439 65.4091 88.8791 65.4091C88.291 65.4091 87.7754 65.5625 87.3322 65.8693C86.8933 66.1719 86.5502 66.6001 86.3031 67.1541C86.0602 67.7038 85.9387 68.3494 85.9387 69.0909C85.9387 69.8494 86.0581 70.5099 86.2967 71.0724C86.5396 71.6349 86.8805 72.0717 87.3194 72.3828C87.7626 72.6939 88.2825 72.8494 88.8791 72.8494C89.2711 72.8494 89.627 72.7812 89.9466 72.6449C90.2662 72.5085 90.5368 72.3125 90.7583 72.0568C90.9799 71.8011 91.1376 71.4943 91.2314 71.1364H92.7399C92.6547 71.7159 92.4437 72.2379 92.1071 72.7024C91.7747 73.1626 91.3336 73.5291 90.7839 73.8018C90.2385 74.0703 89.6035 74.2045 88.8791 74.2045ZM94.1717 65.5881V64.1818H102.149V65.5881H98.9274V74H97.4189V65.5881H94.1717ZM110.92 68.4006V69.8068H105.5V68.4006H110.92ZM105.858 64.1818V74H104.349V64.1818H105.858ZM112.071 64.1818V74H110.562V64.1818H112.071ZM116.335 71.7756L121.065 64.1818H122.803V74H121.295V66.4062L116.59 74H114.826V64.1818H116.335V71.7756ZM125.566 74V64.1818H127.075V68.4517H128.072L131.6 64.1818H133.544L129.58 68.9119L133.595 74H131.651L128.43 69.858H127.075V74H125.566ZM138.819 74.2045C137.932 74.2045 137.154 73.9936 136.485 73.5717C135.821 73.1499 135.301 72.5597 134.926 71.8011C134.555 71.0426 134.37 70.1562 134.37 69.142C134.37 68.1193 134.555 67.2266 134.926 66.4638C135.301 65.701 135.821 65.1087 136.485 64.6868C137.154 64.2649 137.932 64.054 138.819 64.054C139.705 64.054 140.48 64.2649 141.145 64.6868C141.814 65.1087 142.334 65.701 142.705 66.4638C143.08 67.2266 143.267 68.1193 143.267 69.142C143.267 70.1562 143.08 71.0426 142.705 71.8011C142.334 72.5597 141.814 73.1499 141.145 73.5717C140.48 73.9936 139.705 74.2045 138.819 74.2045ZM138.819 72.8494C139.492 72.8494 140.046 72.6768 140.48 72.3317C140.915 71.9865 141.237 71.5327 141.446 70.9702C141.654 70.4077 141.759 69.7983 141.759 69.142C141.759 68.4858 141.654 67.8743 141.446 67.3075C141.237 66.7408 140.915 66.2827 140.48 65.9332C140.046 65.5838 139.492 65.4091 138.819 65.4091C138.145 65.4091 137.591 65.5838 137.157 65.9332C136.722 66.2827 136.4 66.7408 136.191 67.3075C135.983 67.8743 135.878 68.4858 135.878 69.142C135.878 69.7983 135.983 70.4077 136.191 70.9702C136.4 71.5327 136.722 71.9865 137.157 72.3317C137.591 72.6768 138.145 72.8494 138.819 72.8494ZM150.939 71.9545L154.366 64.1818H155.797L151.553 74H150.326L146.158 64.1818H147.564L150.939 71.9545ZM147.079 64.1818V74H145.57V64.1818H147.079ZM154.8 74V64.1818H156.309V74H154.8Z"
          fill="white"/>
</svg>
