<svg width="404" height="248" viewBox="0 0 404 248" fill="none" xmlns="http://www.w3.org/2000/svg">
    <path d="M72.6527 49.9091H103.81V153.865C103.81 163.474 101.651 171.822 97.3313 178.908C93.0605 185.993 87.1153 191.453 79.4957 195.287C71.8762 199.121 63.0191 201.038 52.9244 201.038C43.9459 201.038 35.7925 199.461 28.4641 196.306C21.1843 193.103 15.409 188.25 11.1381 181.747C6.86731 175.195 4.75616 166.969 4.80469 157.068H36.1808C36.2778 160.999 37.0786 164.372 38.5831 167.187C40.1361 169.953 42.2473 172.089 44.9166 173.593C47.6344 175.049 50.8375 175.777 54.5259 175.777C58.4085 175.777 61.6844 174.952 64.3537 173.302C67.0715 171.604 69.1341 169.128 70.5416 165.877C71.949 162.625 72.6527 158.621 72.6527 153.865V49.9091ZM129.29 199V87.1818H160.302V199H129.29ZM144.869 72.7678C140.258 72.7678 136.303 71.239 133.002 68.1815C129.751 65.0754 128.125 61.3627 128.125 57.0433C128.125 52.7725 129.751 49.1083 133.002 46.0508C136.303 42.9447 140.258 41.3917 144.869 41.3917C149.479 41.3917 153.41 42.9447 156.662 46.0508C159.962 49.1083 161.612 52.7725 161.612 57.0433C161.612 61.3627 159.962 65.0754 156.662 68.1815C153.41 71.239 149.479 72.7678 144.869 72.7678ZM217.03 201.111C209.896 201.111 203.538 199.874 197.957 197.398C192.376 194.875 187.959 191.162 184.707 186.26C181.504 181.31 179.903 175.146 179.903 167.77C179.903 161.557 181.043 156.34 183.324 152.118C185.605 147.896 188.711 144.498 192.642 141.926C196.574 139.354 201.039 137.413 206.037 136.102C211.085 134.792 216.375 133.87 221.907 133.336C228.411 132.656 233.652 132.026 237.632 131.443C241.611 130.812 244.499 129.89 246.295 128.677C248.091 127.464 248.988 125.668 248.988 123.29V122.853C248.988 118.242 247.532 114.675 244.62 112.152C241.757 109.628 237.68 108.366 232.39 108.366C226.809 108.366 222.368 109.604 219.068 112.079C215.768 114.505 213.584 117.563 212.516 121.251L183.834 118.922C185.29 112.127 188.153 106.255 192.424 101.305C196.695 96.3059 202.203 92.4718 208.949 89.8025C215.744 87.0848 223.606 85.7259 232.536 85.7259C238.748 85.7259 244.693 86.4538 250.372 87.9098C256.098 89.3658 261.17 91.6225 265.586 94.68C270.051 97.7376 273.57 101.669 276.142 106.473C278.714 111.23 280 116.932 280 123.581V199H250.59V183.494H249.716C247.921 186.988 245.518 190.07 242.509 192.739C239.5 195.36 235.885 197.423 231.662 198.927C227.44 200.383 222.563 201.111 217.03 201.111ZM225.911 179.708C230.473 179.708 234.502 178.811 237.996 177.015C241.49 175.171 244.232 172.696 246.222 169.589C248.212 166.483 249.207 162.965 249.207 159.034V147.168C248.236 147.799 246.901 148.381 245.203 148.915C243.553 149.4 241.684 149.861 239.597 150.298C237.511 150.686 235.424 151.05 233.337 151.39C231.25 151.681 229.357 151.948 227.658 152.191C224.019 152.725 220.84 153.574 218.122 154.739C215.404 155.903 213.293 157.481 211.788 159.471C210.284 161.412 209.532 163.838 209.532 166.75C209.532 170.973 211.06 174.2 214.118 176.433C217.224 178.616 221.155 179.708 225.911 179.708ZM359.915 199V87.1818H390.927V199H359.915ZM375.494 72.7678C370.883 72.7678 366.928 71.239 363.627 68.1815C360.376 65.0754 358.75 61.3627 358.75 57.0433C358.75 52.7725 360.376 49.1083 363.627 46.0508C366.928 42.9447 370.883 41.3917 375.494 41.3917C380.104 41.3917 384.035 42.9447 387.287 46.0508C390.587 49.1083 392.237 52.7725 392.237 57.0433C392.237 61.3627 390.587 65.0754 387.287 68.1815C384.035 71.239 380.104 72.7678 375.494 72.7678Z"
          fill="#212121"/>
    <path d="M304.06 87.1818H335.072V204.533C335.072 213.171 333.374 220.16 329.976 225.499C326.579 230.837 321.702 234.744 315.344 237.219C309.035 239.694 301.488 240.932 292.704 240.932C291.636 240.932 290.617 240.908 289.646 240.859C288.627 240.859 287.559 240.835 286.443 240.786V216.544C287.268 216.593 287.996 216.617 288.627 216.617C289.209 216.666 289.84 216.69 290.52 216.69C295.519 216.69 299.013 215.622 301.003 213.487C303.041 211.4 304.06 208.245 304.06 204.023V87.1818ZM319.494 72.7678C314.931 72.7678 311 71.239 307.7 68.1815C304.4 65.0754 302.75 61.3627 302.75 57.0433C302.75 52.7725 304.4 49.1083 307.7 46.0508C311 42.9447 314.931 41.3917 319.494 41.3917C324.153 41.3917 328.108 42.9447 331.36 46.0508C334.66 49.1083 336.31 52.7725 336.31 57.0433C336.31 61.3627 334.66 65.0754 331.36 68.1815C328.108 71.239 324.153 72.7678 319.494 72.7678Z"
          fill="#005DA0"/>
    <path d="M4 216H297V231C297 236.523 292.523 241 287 241H4V216Z" fill="#005DA0"/>
    <path d="M69.5511 219.545V237H66.9176V219.545H69.5511ZM73.3864 219.545H76.5824L82.1392 233.114H82.3438L87.9006 219.545H91.0966V237H88.5909V224.369H88.429L83.2812 236.974H81.2017L76.054 224.361H75.892V237H73.3864V219.545ZM94.9254 237V219.545H101.147C102.505 219.545 103.63 219.793 104.522 220.287C105.414 220.781 106.082 221.457 106.525 222.315C106.968 223.168 107.19 224.128 107.19 225.196C107.19 226.27 106.965 227.236 106.516 228.094C106.073 228.946 105.403 229.622 104.505 230.122C103.613 230.616 102.491 230.864 101.138 230.864H96.8601V228.631H100.9C101.758 228.631 102.454 228.483 102.988 228.188C103.522 227.886 103.914 227.477 104.164 226.96C104.414 226.443 104.539 225.855 104.539 225.196C104.539 224.537 104.414 223.952 104.164 223.44C103.914 222.929 103.519 222.528 102.979 222.239C102.445 221.949 101.741 221.804 100.866 221.804H97.5589V237H94.9254ZM125.439 228.273C125.439 230.136 125.098 231.739 124.416 233.08C123.734 234.415 122.8 235.443 121.612 236.165C120.43 236.881 119.087 237.239 117.581 237.239C116.07 237.239 114.72 236.881 113.533 236.165C112.351 235.443 111.419 234.412 110.737 233.071C110.055 231.73 109.714 230.131 109.714 228.273C109.714 226.409 110.055 224.81 110.737 223.474C111.419 222.134 112.351 221.105 113.533 220.389C114.72 219.668 116.07 219.307 117.581 219.307C119.087 219.307 120.43 219.668 121.612 220.389C122.8 221.105 123.734 222.134 124.416 223.474C125.098 224.81 125.439 226.409 125.439 228.273ZM122.831 228.273C122.831 226.852 122.601 225.656 122.141 224.685C121.686 223.707 121.061 222.969 120.266 222.469C119.476 221.963 118.581 221.71 117.581 221.71C116.575 221.71 115.678 221.963 114.888 222.469C114.098 222.969 113.473 223.707 113.013 224.685C112.558 225.656 112.331 226.852 112.331 228.273C112.331 229.693 112.558 230.892 113.013 231.869C113.473 232.841 114.098 233.58 114.888 234.085C115.678 234.585 116.575 234.835 117.581 234.835C118.581 234.835 119.476 234.585 120.266 234.085C121.061 233.58 121.686 232.841 122.141 231.869C122.601 230.892 122.831 229.693 122.831 228.273ZM128.722 237V219.545H134.944C136.296 219.545 137.418 219.778 138.31 220.244C139.208 220.71 139.879 221.355 140.322 222.179C140.765 222.997 140.987 223.943 140.987 225.017C140.987 226.085 140.762 227.026 140.313 227.838C139.87 228.645 139.2 229.273 138.302 229.722C137.41 230.17 136.288 230.395 134.935 230.395H130.222V228.128H134.697C135.549 228.128 136.242 228.006 136.776 227.761C137.316 227.517 137.711 227.162 137.961 226.696C138.211 226.23 138.336 225.67 138.336 225.017C138.336 224.358 138.208 223.787 137.952 223.304C137.702 222.821 137.308 222.452 136.768 222.196C136.234 221.935 135.532 221.804 134.663 221.804H131.356V237H128.722ZM137.339 229.125L141.651 237H138.651L134.424 229.125H137.339ZM143.33 221.812V219.545H156.839V221.812H151.393V237H148.768V221.812H143.33ZM188.16 237V219.545H199.103V221.812H190.793V227.131H198.532V229.389H190.793V234.733H199.205V237H188.16ZM204.453 219.545L208.629 226.372H208.766L212.942 219.545H215.993L210.555 228.273L216.027 237H212.959L208.766 230.267H208.629L204.436 237H201.368L206.933 228.273L201.402 219.545H204.453ZM218.605 237V219.545H224.827C226.185 219.545 227.31 219.793 228.202 220.287C229.094 220.781 229.761 221.457 230.205 222.315C230.648 223.168 230.869 224.128 230.869 225.196C230.869 226.27 230.645 227.236 230.196 228.094C229.753 228.946 229.082 229.622 228.185 230.122C227.293 230.616 226.17 230.864 224.818 230.864H220.54V228.631H224.58C225.438 228.631 226.134 228.483 226.668 228.188C227.202 227.886 227.594 227.477 227.844 226.96C228.094 226.443 228.219 225.855 228.219 225.196C228.219 224.537 228.094 223.952 227.844 223.44C227.594 222.929 227.199 222.528 226.659 222.239C226.125 221.949 225.42 221.804 224.545 221.804H221.239V237H218.605ZM249.119 228.273C249.119 230.136 248.778 231.739 248.096 233.08C247.414 234.415 246.479 235.443 245.292 236.165C244.11 236.881 242.766 237.239 241.261 237.239C239.749 237.239 238.4 236.881 237.212 236.165C236.031 235.443 235.099 234.412 234.417 233.071C233.735 231.73 233.394 230.131 233.394 228.273C233.394 226.409 233.735 224.81 234.417 223.474C235.099 222.134 236.031 221.105 237.212 220.389C238.4 219.668 239.749 219.307 241.261 219.307C242.766 219.307 244.11 219.668 245.292 220.389C246.479 221.105 247.414 222.134 248.096 223.474C248.778 224.81 249.119 226.409 249.119 228.273ZM246.511 228.273C246.511 226.852 246.281 225.656 245.82 224.685C245.366 223.707 244.741 222.969 243.945 222.469C243.156 221.963 242.261 221.71 241.261 221.71C240.255 221.71 239.357 221.963 238.567 222.469C237.778 222.969 237.153 223.707 236.692 224.685C236.238 225.656 236.011 226.852 236.011 228.273C236.011 229.693 236.238 230.892 236.692 231.869C237.153 232.841 237.778 233.58 238.567 234.085C239.357 234.585 240.255 234.835 241.261 234.835C242.261 234.835 243.156 234.585 243.945 234.085C244.741 233.58 245.366 232.841 245.82 231.869C246.281 230.892 246.511 229.693 246.511 228.273ZM252.402 237V219.545H258.624C259.976 219.545 261.098 219.778 261.99 220.244C262.888 220.71 263.558 221.355 264.001 222.179C264.445 222.997 264.666 223.943 264.666 225.017C264.666 226.085 264.442 227.026 263.993 227.838C263.55 228.645 262.879 229.273 261.982 229.722C261.089 230.17 259.967 230.395 258.615 230.395H253.902V228.128H258.376C259.229 228.128 259.922 228.006 260.456 227.761C260.996 227.517 261.391 227.162 261.641 226.696C261.891 226.23 262.016 225.67 262.016 225.017C262.016 224.358 261.888 223.787 261.632 223.304C261.382 222.821 260.987 222.452 260.447 222.196C259.913 221.935 259.212 221.804 258.342 221.804H255.036V237H252.402ZM261.018 229.125L265.331 237H262.331L258.104 229.125H261.018ZM267.01 221.812V219.545H280.518V221.812H275.072V237H272.447V221.812H267.01Z"
          fill="white"/>
    <path d="M171.05 237.247C169.88 237.247 168.871 237.034 168.025 236.608C167.184 236.182 166.536 235.602 166.082 234.869C165.627 234.131 165.4 233.295 165.4 232.364C165.4 231.653 165.548 231.023 165.843 230.472C166.138 229.915 166.55 229.401 167.079 228.929C167.607 228.457 168.218 227.983 168.911 227.506L171.724 225.52C172.201 225.207 172.573 224.878 172.84 224.531C173.107 224.179 173.241 223.744 173.241 223.227C173.241 222.818 173.065 222.426 172.712 222.051C172.36 221.676 171.888 221.489 171.298 221.489C170.888 221.489 170.528 221.588 170.215 221.787C169.908 221.986 169.667 222.241 169.491 222.554C169.32 222.861 169.235 223.185 169.235 223.526C169.235 223.923 169.343 224.324 169.559 224.727C169.781 225.131 170.065 225.548 170.411 225.98C170.758 226.406 171.121 226.849 171.502 227.31L179.607 237H176.727L170.019 229.116C169.457 228.452 168.934 227.827 168.451 227.241C167.968 226.651 167.576 226.054 167.275 225.452C166.979 224.844 166.832 224.188 166.832 223.483C166.832 222.682 167.013 221.972 167.377 221.352C167.746 220.727 168.261 220.239 168.92 219.886C169.579 219.534 170.352 219.358 171.238 219.358C172.136 219.358 172.906 219.534 173.548 219.886C174.195 220.233 174.692 220.696 175.039 221.276C175.391 221.849 175.567 222.477 175.567 223.159C175.567 223.989 175.36 224.722 174.945 225.358C174.536 225.989 173.971 226.568 173.249 227.097L169.746 229.679C169.065 230.179 168.59 230.673 168.323 231.162C168.062 231.645 167.931 232.023 167.931 232.295C167.931 232.795 168.059 233.259 168.315 233.685C168.576 234.111 168.94 234.452 169.406 234.707C169.877 234.963 170.428 235.091 171.059 235.091C171.707 235.091 172.337 234.952 172.951 234.673C173.57 234.389 174.13 233.983 174.63 233.455C175.136 232.926 175.536 232.293 175.832 231.554C176.127 230.815 176.275 229.989 176.275 229.074H178.576C178.576 230.199 178.448 231.151 178.192 231.929C177.937 232.702 177.627 233.332 177.263 233.821C176.906 234.304 176.567 234.682 176.249 234.955C176.147 235.045 176.05 235.136 175.96 235.227C175.869 235.318 175.772 235.409 175.67 235.5C175.079 236.097 174.363 236.537 173.522 236.821C172.687 237.105 171.863 237.247 171.05 237.247Z"
          fill="#EA7363"/>
</svg>
