<svg width="17" height="17" viewBox="0 0 17 17" fill="none" xmlns="http://www.w3.org/2000/svg">
    <mask id="path-1-inside-1_152_1001" fill="white">
        <path d="M15.6667 14.1663H2.33333C1.598 14.1663 1 13.531 1 12.7497V4.24967C1 3.46838 1.598 2.83301 2.33333 2.83301H15.6667C16.402 2.83301 17 3.46838 17 4.24967V12.7497C17 13.531 16.402 14.1663 15.6667 14.1663ZM2.33333 3.54134C1.96567 3.54134 1.66667 3.85903 1.66667 4.24967V12.7497C1.66667 13.1403 1.96567 13.458 2.33333 13.458H15.6667C16.0343 13.458 16.3333 13.1403 16.3333 12.7497V4.24967C16.3333 3.85903 16.0343 3.54134 15.6667 3.54134H2.33333Z"/>
    </mask>
    <path d="M15.6667 14.1663H2.33333C1.598 14.1663 1 13.531 1 12.7497V4.24967C1 3.46838 1.598 2.83301 2.33333 2.83301H15.6667C16.402 2.83301 17 3.46838 17 4.24967V12.7497C17 13.531 16.402 14.1663 15.6667 14.1663ZM2.33333 3.54134C1.96567 3.54134 1.66667 3.85903 1.66667 4.24967V12.7497C1.66667 13.1403 1.96567 13.458 2.33333 13.458H15.6667C16.0343 13.458 16.3333 13.1403 16.3333 12.7497V4.24967C16.3333 3.85903 16.0343 3.54134 15.6667 3.54134H2.33333Z"
          fill="#212121"/>
    <path d="M15.6667 13.1663H2.33333V15.1663H15.6667V13.1663ZM2.33333 13.1663C2.20653 13.1663 2 13.0367 2 12.7497H0C0 14.0253 0.989467 15.1663 2.33333 15.1663V13.1663ZM2 12.7497V4.24967H0V12.7497H2ZM2 4.24967C2 3.96269 2.20653 3.83301 2.33333 3.83301V1.83301C0.989467 1.83301 0 2.97408 0 4.24967H2ZM2.33333 3.83301H15.6667V1.83301H2.33333V3.83301ZM15.6667 3.83301C15.7935 3.83301 16 3.96269 16 4.24967H18C18 2.97408 17.0105 1.83301 15.6667 1.83301V3.83301ZM16 4.24967V12.7497H18V4.24967H16ZM16 12.7497C16 13.0367 15.7935 13.1663 15.6667 13.1663V15.1663C17.0105 15.1663 18 14.0253 18 12.7497H16ZM2.33333 2.54134C1.35713 2.54134 0.666667 3.36472 0.666667 4.24967H2.66667C2.66667 4.35333 2.5742 4.54134 2.33333 4.54134V2.54134ZM0.666667 4.24967V12.7497H2.66667V4.24967H0.666667ZM0.666667 12.7497C0.666667 13.6346 1.35713 14.458 2.33333 14.458V12.458C2.5742 12.458 2.66667 12.646 2.66667 12.7497H0.666667ZM2.33333 14.458H15.6667V12.458H2.33333V14.458ZM15.6667 14.458C16.6429 14.458 17.3333 13.6346 17.3333 12.7497H15.3333C15.3333 12.646 15.4258 12.458 15.6667 12.458V14.458ZM17.3333 12.7497V4.24967H15.3333V12.7497H17.3333ZM17.3333 4.24967C17.3333 3.36472 16.6429 2.54134 15.6667 2.54134V4.54134C15.4258 4.54134 15.3333 4.35333 15.3333 4.24967H17.3333ZM15.6667 2.54134H2.33333V4.54134H15.6667V2.54134Z"
          fill="#212121" mask="url(#path-1-inside-1_152_1001)"/>
    <mask id="path-3-inside-2_152_1001" fill="white">
        <path d="M9.00014 10.3378L3.15247 6.31767C2.9978 6.21107 2.95347 5.99219 3.05347 5.82786C3.15347 5.66353 3.3598 5.61678 3.51447 5.72267L9.00014 9.49419L14.4858 5.72267C14.6405 5.61678 14.8468 5.66353 14.9468 5.82786C15.0468 5.99219 15.0025 6.21107 14.8478 6.31767L9.00014 10.3378Z"/>
    </mask>
    <path d="M9.00014 10.3378L3.15247 6.31767C2.9978 6.21107 2.95347 5.99219 3.05347 5.82786C3.15347 5.66353 3.3598 5.61678 3.51447 5.72267L9.00014 9.49419L14.4858 5.72267C14.6405 5.61678 14.8468 5.66353 14.9468 5.82786C15.0468 5.99219 15.0025 6.21107 14.8478 6.31767L9.00014 10.3378Z"
          fill="#212121"/>
    <path d="M9.00014 10.3378L8.43362 11.1619L9.00014 11.5513L9.56665 11.1619L9.00014 10.3378ZM3.15247 6.31767L2.58496 7.14104L2.58595 7.14172L3.15247 6.31767ZM3.51447 5.72267L4.08101 4.89864L4.07941 4.89754L3.51447 5.72267ZM9.00014 9.49419L8.4336 10.3182L9.00014 10.7077L9.56668 10.3182L9.00014 9.49419ZM14.4858 5.72267L13.9209 4.89754L13.9193 4.89864L14.4858 5.72267ZM14.8478 6.31767L15.4143 7.14172L15.4153 7.14104L14.8478 6.31767ZM9.56665 9.51377L3.71899 5.49362L2.58595 7.14172L8.43362 11.1619L9.56665 9.51377ZM3.71998 5.4943C4.01806 5.69975 4.07304 6.07605 3.90774 6.3477L2.19921 5.30802C1.8339 5.90834 1.97755 6.72238 2.58496 7.14104L3.71998 5.4943ZM3.90774 6.3477C3.72181 6.65323 3.28702 6.77887 2.94953 6.5478L4.07941 4.89754C3.43259 4.45468 2.58513 4.67382 2.19921 5.30802L3.90774 6.3477ZM2.94793 6.5467L8.4336 10.3182L9.56668 8.67016L4.08101 4.89864L2.94793 6.5467ZM9.56668 10.3182L15.0523 6.5467L13.9193 4.89864L8.4336 8.67016L9.56668 10.3182ZM15.0507 6.5478C14.7133 6.77887 14.2785 6.65323 14.0925 6.3477L15.8011 5.30802C15.4151 4.67382 14.5677 4.45468 13.9209 4.89754L15.0507 6.5478ZM14.0925 6.3477C13.9272 6.07605 13.9822 5.69975 14.2803 5.4943L15.4153 7.14104C16.0227 6.72238 16.1664 5.90834 15.8011 5.30802L14.0925 6.3477ZM14.2813 5.49362L8.43362 9.51377L9.56665 11.1619L15.4143 7.14172L14.2813 5.49362Z"
          fill="#212121" mask="url(#path-3-inside-2_152_1001)"/>
    <path d="M3.00036 12.0415C2.89269 12.0415 2.78669 11.9863 2.72269 11.8839C2.62036 11.721 2.66169 11.5014 2.81503 11.3927L5.81503 9.26771C5.96836 9.15898 6.17536 9.2029 6.27736 9.36581C6.37969 9.52873 6.33836 9.74832 6.18503 9.85704L3.18503 11.982C3.12803 12.0221 3.06369 12.0415 3.00036 12.0415Z"
          fill="#212121"/>
    <path d="M14.9997 12.0415C14.9364 12.0415 14.872 12.0221 14.815 11.982L11.815 9.85704C11.6617 9.74832 11.6204 9.52873 11.7227 9.36581C11.8247 9.2029 12.0314 9.15898 12.185 9.26771L15.185 11.3927C15.3384 11.5014 15.3797 11.721 15.2774 11.8839C15.2134 11.9863 15.1074 12.0415 14.9997 12.0415Z"
          fill="#212121"/>
</svg>
