<svg width="18" height="17" viewBox="0 0 18 17" fill="none" xmlns="http://www.w3.org/2000/svg">
    <path d="M12.5078 2.8291C13.5551 3.41744 14.4201 4.25559 15.0161 5.25944C15.612 6.26329 15.9179 7.39752 15.9031 8.54831"
          stroke="#212121" stroke-linecap="round" stroke-linejoin="round"/>
    <path d="M11.6694 6.02148C12.0267 6.20439 12.3265 6.47324 12.5383 6.80081C12.7501 7.12837 12.8665 7.503 12.8756 7.88672"
          stroke="#212121" stroke-linecap="round" stroke-linejoin="round"/>
    <path d="M5.92723 7.8281C6.23891 9.22793 7.04333 10.4868 8.20943 11.3996C8.29564 11.4663 8.39872 11.5106 8.50855 11.5281C8.61838 11.5457 8.73116 11.536 8.83579 11.4999L11.1043 10.7294C11.2048 10.6945 11.3129 10.6842 11.4187 10.6995C11.5245 10.7148 11.6245 10.7552 11.7093 10.8168L14.9622 13.1492C15.0738 13.2274 15.1551 13.338 15.1935 13.4641C15.232 13.5902 15.2255 13.7247 15.1751 13.8469C14.8357 14.6707 14.1901 15.3494 13.3591 15.7561C12.5281 16.1628 11.5687 16.2696 10.6604 16.0565C7.85357 15.3974 5.43896 13.7122 3.94772 11.3717C2.45649 9.03125 2.01078 6.22713 2.70865 3.57626C2.93468 2.71849 3.48391 1.9679 4.25355 1.46493C5.02319 0.961956 5.96051 0.741077 6.89013 0.843617C7.02812 0.858795 7.157 0.916393 7.25692 1.00754C7.35685 1.09869 7.42228 1.21833 7.44313 1.34805L8.09982 5.16218C8.11721 5.26018 8.10881 5.36071 8.07537 5.45493C8.04192 5.54914 7.98445 5.63413 7.90802 5.70242L6.11705 7.26399C6.03697 7.33484 5.97746 7.4239 5.94423 7.52266C5.911 7.62143 5.90514 7.72659 5.92723 7.8281V7.8281Z"
          stroke="#212121" stroke-linecap="round" stroke-linejoin="round"/>
</svg>
