<svg width="40" height="40" viewBox="0 0 40 40" fill="none" xmlns="http://www.w3.org/2000/svg">
    <path d="M20 0C8.9543 0 0 8.75092 0 19.5457C0 30.3406 8.9543 39.0915 20 39.0915C31.0457 39.0915 40 30.3406 40 19.5457C40 8.75092 31.0457 0 20 0ZM30.3952 12.3639L26.843 28.9369C26.8001 29.1373 26.7062 29.324 26.5702 29.4798C26.4341 29.6355 26.2602 29.7554 26.0643 29.8283C25.8685 29.9012 25.6571 29.9249 25.4494 29.8971C25.2418 29.8693 25.0447 29.791 24.8761 29.6693L19.7092 25.9387L16.5789 28.8248C16.5379 28.8626 16.4897 28.892 16.4369 28.9113C16.3842 28.9307 16.328 28.9396 16.2717 28.9375C16.2155 28.9354 16.1602 28.9224 16.1091 28.8992C16.058 28.876 16.0121 28.843 15.9742 28.8023L15.907 28.7301L16.4509 23.586L26.2543 14.8323C26.3028 14.7891 26.3329 14.7297 26.3388 14.6658C26.3447 14.602 26.3258 14.5382 26.286 14.4873C26.2462 14.4363 26.1882 14.4018 26.1236 14.3905C26.059 14.3792 25.9925 14.392 25.937 14.4264L13.3996 22.1813L8 20.409C7.85643 20.3619 7.73129 20.2725 7.64177 20.1531C7.55225 20.0337 7.50272 19.8902 7.49998 19.7422C7.49724 19.5942 7.54143 19.449 7.62648 19.3265C7.71152 19.204 7.83327 19.1103 7.975 19.0581L29.1016 11.2803C29.2645 11.2204 29.441 11.2044 29.6125 11.2339C29.784 11.2634 29.9442 11.3374 30.0764 11.4481C30.2086 11.5589 30.3079 11.7023 30.364 11.8634C30.4201 12.0245 30.4309 12.1973 30.3952 12.3639Z"
          fill="black"/>
</svg>
