<svg width="48" height="49" viewBox="0 0 48 49" fill="none" xmlns="http://www.w3.org/2000/svg">
    <path d="M25.4576 25.7715C24.9489 25.7692 24.5229 26.2056 24.5406 26.711C24.5573 27.1939 24.964 27.5845 25.4512 27.5851C25.9418 27.5856 26.3458 27.2016 26.3644 26.7171C26.384 26.204 25.9714 25.7735 25.4576 25.7715Z"
          fill="black"/>
    <path d="M16.4741 18.7925C15.8616 18.7745 15.3577 19.2427 15.3399 19.8463C15.3217 20.4581 15.7897 20.9483 16.4067 20.964C17.0183 20.9795 17.5311 20.5108 17.5537 19.915C17.5761 19.3337 17.0724 18.8099 16.4741 18.7925Z"
          fill="black"/>
    <path d="M23.4272 20.9691C24.0463 20.9616 24.5159 20.4834 24.51 19.8657C24.5049 19.2594 24.0093 18.7811 23.3982 18.7922C22.7977 18.8032 22.2902 19.3147 22.3009 19.8983C22.312 20.5033 22.8097 20.9765 23.4272 20.9691Z"
          fill="black"/>
    <path d="M31.1062 25.7735C30.6302 25.7702 30.2257 26.1598 30.2063 26.6408C30.1857 27.1552 30.5855 27.5776 31.0945 27.5789C31.5868 27.5805 31.9758 27.2082 31.9938 26.7182C32.0129 26.2026 31.6129 25.777 31.1062 25.7735Z"
          fill="black"/>
    <path d="M23.9653 4.02441C12.505 4.02441 3.21387 13.3138 3.21387 24.7741C3.21387 36.2346 12.505 45.5255 23.9653 45.5255C35.4248 45.5255 44.7158 36.2346 44.7158 24.7741C44.7158 13.3138 35.4248 4.02441 23.9653 4.02441ZM17.4859 29.4225C17.1849 29.3972 16.8278 29.4332 16.5728 29.577C15.7266 30.0546 14.9155 30.5935 13.954 31.1945C14.1304 30.3966 14.2445 29.6979 14.4467 29.0258C14.5953 28.5318 14.5265 28.2569 14.0714 27.9353C11.1497 25.8724 9.91819 22.7855 10.8399 19.6071C11.6926 16.667 13.7866 14.8838 16.6319 13.9543C20.5155 12.6857 24.8799 13.9798 27.2415 17.0631C28.0944 18.1769 28.6175 19.427 28.7557 20.9054C26.3218 21.0326 24.2054 21.7703 22.487 23.4373C20.751 25.1214 19.9585 27.185 20.1751 29.7433C19.2238 29.6256 18.3573 29.4959 17.4859 29.4225ZM34.6121 33.4159C33.8618 34.0816 33.5917 34.6296 34.0732 35.5072C34.162 35.6691 34.1722 35.8744 34.2237 36.079C33.4529 35.7358 32.7461 35.221 31.9933 35.1423C31.2436 35.064 30.4554 35.4965 29.6709 35.5767C27.2815 35.8213 25.1408 35.1553 23.3756 33.523C20.0186 30.4179 20.4983 25.6569 24.3822 23.1123C27.8342 20.8508 32.8967 21.6047 35.3305 24.7427C37.4544 27.4808 37.2048 31.1155 34.6121 33.4159Z"
          fill="black"/>
</svg>
