<svg width="42" height="42" viewBox="0 0 42 42" fill="none" xmlns="http://www.w3.org/2000/svg">
    <path d="M21.3186 10.3477C15.608 10.3477 10.9636 14.9916 10.9614 20.6997C10.9606 22.6559 11.508 24.561 12.5443 26.2093L12.7905 26.601L11.7446 30.4213L15.663 29.3934L16.0409 29.6178C17.6305 30.561 19.4526 31.0601 21.3102 31.0609H21.3145C27.0208 31.0609 31.665 26.4165 31.6672 20.7079C31.6683 17.9417 30.5925 15.3405 28.6379 13.3836C26.6833 11.4269 24.0838 10.3485 21.3186 10.3477ZM27.4082 25.1509C27.1489 25.8778 25.9054 26.5413 25.3074 26.6307C24.7711 26.7109 24.0927 26.7443 23.3471 26.5074C22.8951 26.3639 22.3154 26.1724 21.5728 25.8518C18.4507 24.5036 16.4117 21.3601 16.2561 21.1523C16.1005 20.9446 14.9852 19.4647 14.9852 17.9327C14.9852 16.4009 15.7893 15.6479 16.0746 15.3363C16.3597 15.0248 16.697 14.9468 16.9045 14.9468C17.1119 14.9468 17.3197 14.9488 17.5009 14.9578C17.692 14.9675 17.9486 14.8852 18.2013 15.4921C18.4606 16.1153 19.083 17.6473 19.1609 17.8031C19.2387 17.9588 19.2906 18.1406 19.1868 18.3483C19.0831 18.5559 19.0313 18.6858 18.8756 18.8675C18.7201 19.0493 18.5487 19.2732 18.4088 19.4127C18.2529 19.5679 18.0907 19.7364 18.2722 20.0479C18.4538 20.3596 19.0784 21.3786 20.0037 22.204C21.1924 23.2643 22.1953 23.5929 22.5065 23.7487C22.8177 23.9046 22.9993 23.8784 23.1809 23.6709C23.3625 23.4631 23.9589 22.762 24.1664 22.4505C24.3739 22.139 24.5813 22.1909 24.8666 22.2947C25.1518 22.3987 26.6821 23.1515 26.9933 23.3072C27.3045 23.463 27.512 23.541 27.5898 23.6709C27.6676 23.8005 27.6676 24.4237 27.4082 25.1509Z"
          fill="black"/>
    <path d="M20.8593 0.404297C9.39898 0.404297 0.10791 9.69368 0.10791 21.154C0.10791 32.6143 9.39898 41.9054 20.8593 41.9054C32.3188 41.9054 41.6099 32.6143 41.6099 21.154C41.6099 9.69368 32.3188 0.404297 20.8593 0.404297ZM21.3147 33.165C21.3143 33.165 21.315 33.165 21.3147 33.165H21.3096C19.2249 33.1642 17.1764 32.6411 15.3572 31.6489L8.75406 33.381L10.5212 26.9264C9.43117 25.0374 8.85763 22.8947 8.85856 20.6993C8.86125 13.8317 14.4491 8.24424 21.3146 8.24424C24.6466 8.24559 27.7741 9.54275 30.1258 11.8972C32.4775 14.2515 33.772 17.3809 33.7707 20.7092C33.7677 27.577 28.1796 33.165 21.3147 33.165Z"
          fill="black"/>
</svg>
