<svg width="21" height="20" viewBox="0 0 21 20" fill="none" xmlns="http://www.w3.org/2000/svg">
    <path d="M20.5073 5.5493H18.0517L17.3692 3.48813C16.6678 1.36899 14.994 0 13.1044 0H7.89537C6.00619 0 4.33193 1.36899 3.63015 3.48813L2.94765 5.5493H0.492449C0.172117 5.5493 -0.0629032 5.91298 0.0150266 6.28805L0.261121 7.47719C0.315672 7.74177 0.512547 7.92758 0.738543 7.92758H1.56173C1.01089 8.50877 0.656102 9.35355 0.656102 10.3058V12.6841C0.656102 13.4828 0.908758 14.2037 1.31235 14.7616V17.4407C1.31235 18.3162 1.90011 19.0262 2.62485 19.0262H3.93736C4.6621 19.0262 5.24986 18.3162 5.24986 17.4407V15.8552H15.7499V17.4407C15.7499 18.3162 16.3376 19.0262 17.0624 19.0262H18.3749C19.0996 19.0262 19.6874 18.3162 19.6874 17.4407V14.7616C20.091 14.2042 20.3436 13.4833 20.3436 12.6841V10.3058C20.3436 9.35355 19.9888 8.50877 19.4384 7.92758H20.2616C20.4876 7.92758 20.6845 7.74177 20.739 7.47719L20.9851 6.28805C21.0626 5.91298 20.8276 5.5493 20.5073 5.5493ZM6.0673 4.66587C6.3663 3.76312 7.09023 3.17103 7.89537 3.17103H13.1044C13.9095 3.17103 14.6334 3.76312 14.9324 4.66587L15.7499 7.13482H5.24986L6.0673 4.66587ZM3.93736 12.6742C3.14985 12.6742 2.62485 12.042 2.62485 11.0937C2.62485 10.1453 3.14985 9.51309 3.93736 9.51309C4.72486 9.51309 5.90611 10.9356 5.90611 11.8839C5.90611 12.8323 4.72486 12.6742 3.93736 12.6742ZM17.0624 12.6742C16.2749 12.6742 15.0936 12.8323 15.0936 11.8839C15.0936 10.9356 16.2749 9.51309 17.0624 9.51309C17.8499 9.51309 18.3749 10.1453 18.3749 11.0937C18.3749 12.042 17.8499 12.6742 17.0624 12.6742Z"
          fill="#8CD3FD"/>
</svg>
