<svg width="549" height="362" viewBox="0 0 549 362" fill="none" xmlns="http://www.w3.org/2000/svg">
    <line x1="236.499" y1="209.649" x2="127.196" y2="132.639" stroke="#212121" stroke-width="4"/>
    <line x1="250.686" y1="208.064" x2="127.306" y2="132.711" stroke="#212121" stroke-width="4"/>
    <path d="M134.559 134.731C134.145 135.973 133.084 137.473 130.832 138.314C128.712 139.105 126.692 138.314 125.864 137.9C123.793 136.864 123.794 133.903 123.794 133.903C123.794 133.903 124.585 135.847 126.692 136.387C128.782 136.922 130.541 137.085 132.074 135.145C133.056 133.903 132.903 127.811 127.52 128.106C126.219 128.178 128.401 125.183 127.934 123.966C127.597 123.086 126.692 121.896 126.692 121.896H130.832C130.736 123.695 128.762 124.794 131.246 126.036C133.731 127.278 134.973 129.348 134.973 130.176C134.973 131.004 134.973 133.489 134.559 134.731Z"
          fill="#989898" stroke="#9D9D9D"/>
    <path d="M25.5443 208.315L129.176 132.661" stroke="#212121" stroke-width="4"/>
    <path d="M9.08492 208.25L129.177 132.661" stroke="#212121" stroke-width="4"/>
    <rect y="202.217" width="260.009" height="158.986" rx="2" fill="url(#paint0_linear_339_10)"/>
    <path d="M138.285 93.7421H119.24V100.781L138.285 93.7421Z" fill="#212121"/>
    <path d="M119.24 104.3V107.819V108.647L138.285 101.609V97.4683L119.24 104.3Z" fill="#212121"/>
    <path d="M138.285 105.335L119.24 112.373L121.256 115.271L138.285 108.854V105.335Z" fill="#212121"/>
    <path d="M131.247 121.896L138.285 112.373L123.272 118.17L125.864 121.896H131.247Z" fill="#212121"/>
    <path d="M138.285 112.373V108.854L121.256 115.271L123.272 118.17L138.285 112.373Z" fill="#FC9A2D"/>
    <path d="M119.24 108.647V112.373L138.285 105.335V101.609L119.24 108.647Z" fill="#FC9A2D"/>
    <path d="M138.285 93.7421L119.24 100.781V104.3L138.285 97.4683V93.7421Z" fill="#FC9A2D"/>
    <line x1="123.536" y1="93.7287" x2="124.364" y2="0.98659" stroke="black" stroke-width="3"/>
    <line x1="134.301" y1="93.7287" x2="135.129" y2="0.98659" stroke="black" stroke-width="3"/>
    <path d="M48.767 266.091V301H42.4432V266.091H48.767ZM55.6151 266.091H63.3537L73.7173 291.386H74.1264L84.4901 266.091H92.2287V301H86.1605V277.017H85.8366L76.1889 300.898H71.6548L62.0071 276.966H61.6832V301H55.6151V266.091ZM99.1151 301V266.091H112.206C114.888 266.091 117.138 266.591 118.956 267.591C120.786 268.591 122.166 269.966 123.098 271.716C124.041 273.455 124.513 275.432 124.513 277.648C124.513 279.886 124.041 281.875 123.098 283.614C122.155 285.352 120.763 286.722 118.922 287.722C117.081 288.71 114.814 289.205 112.121 289.205H103.445V284.006H111.268C112.837 284.006 114.121 283.733 115.121 283.188C116.121 282.642 116.859 281.892 117.337 280.938C117.825 279.983 118.07 278.886 118.07 277.648C118.07 276.409 117.825 275.318 117.337 274.375C116.859 273.432 116.115 272.699 115.104 272.176C114.104 271.642 112.814 271.375 111.234 271.375H105.439V301H99.1151ZM161.199 283.545C161.199 287.307 160.494 290.528 159.085 293.21C157.688 295.881 155.778 297.926 153.358 299.347C150.949 300.767 148.216 301.477 145.159 301.477C142.102 301.477 139.364 300.767 136.943 299.347C134.534 297.915 132.625 295.864 131.216 293.193C129.818 290.511 129.119 287.295 129.119 283.545C129.119 279.784 129.818 276.568 131.216 273.898C132.625 271.216 134.534 269.165 136.943 267.744C139.364 266.324 142.102 265.614 145.159 265.614C148.216 265.614 150.949 266.324 153.358 267.744C155.778 269.165 157.688 271.216 159.085 273.898C160.494 276.568 161.199 279.784 161.199 283.545ZM154.841 283.545C154.841 280.898 154.426 278.665 153.597 276.847C152.778 275.017 151.642 273.636 150.188 272.705C148.733 271.761 147.057 271.29 145.159 271.29C143.261 271.29 141.585 271.761 140.131 272.705C138.676 273.636 137.534 275.017 136.705 276.847C135.886 278.665 135.477 280.898 135.477 283.545C135.477 286.193 135.886 288.432 136.705 290.261C137.534 292.08 138.676 293.46 140.131 294.403C141.585 295.335 143.261 295.801 145.159 295.801C147.057 295.801 148.733 295.335 150.188 294.403C151.642 293.46 152.778 292.08 153.597 290.261C154.426 288.432 154.841 286.193 154.841 283.545ZM167.178 301V266.091H180.268C182.95 266.091 185.2 266.557 187.018 267.489C188.848 268.42 190.229 269.727 191.161 271.409C192.104 273.08 192.575 275.028 192.575 277.256C192.575 279.494 192.098 281.437 191.143 283.085C190.2 284.722 188.808 285.989 186.967 286.886C185.126 287.773 182.865 288.216 180.183 288.216H170.859V282.966H179.331C180.899 282.966 182.183 282.75 183.183 282.318C184.183 281.875 184.922 281.233 185.399 280.392C185.888 279.54 186.132 278.494 186.132 277.256C186.132 276.017 185.888 274.96 185.399 274.085C184.911 273.199 184.166 272.528 183.166 272.074C182.166 271.608 180.876 271.375 179.297 271.375H173.501V301H167.178ZM185.212 285.182L193.854 301H186.797L178.308 285.182H185.212ZM196.862 271.392V266.091H224.714V271.392H213.925V301H207.652V271.392H196.862Z"
          fill="white"/>
    <line x1="525.491" y1="140.092" x2="416.188" y2="63.083" stroke="#212121" stroke-width="4"/>
    <line x1="539.677" y1="138.508" x2="416.297" y2="63.1548" stroke="#212121" stroke-width="4"/>
    <path d="M423.55 65.1742C423.136 66.4163 422.075 67.9163 419.824 68.757C417.703 69.5488 415.683 68.757 414.855 68.343C412.785 67.3077 412.785 64.3461 412.785 64.3461C412.785 64.3461 413.576 66.2904 415.683 66.8303C417.773 67.3657 419.532 67.5288 421.066 65.5882C422.047 64.3461 421.894 58.2542 416.511 58.5498C415.21 58.6212 417.392 55.6266 416.925 54.4095C416.588 53.5292 415.683 52.3394 415.683 52.3394H419.824C419.728 54.1386 417.753 55.2375 420.238 56.4796C422.722 57.7217 423.964 59.7918 423.964 60.6199C423.964 61.448 423.964 63.9321 423.55 65.1742Z"
          fill="#989898" stroke="#9D9D9D"/>
    <path d="M314.535 138.759L418.167 63.1041" stroke="#212121" stroke-width="4"/>
    <path d="M298.076 138.693L418.168 63.104" stroke="#212121" stroke-width="4"/>
    <rect x="288.991" y="132.661" width="260.009" height="158.986" rx="2" fill="url(#paint1_linear_339_10)"/>
    <path d="M427.276 24.1855H408.231V31.224L427.276 24.1855Z" fill="#212121"/>
    <path d="M408.231 34.7432V38.2625V39.0905L427.276 32.0521V27.9118L408.231 34.7432Z" fill="#212121"/>
    <path d="M427.276 35.7783L408.231 42.8168L410.247 45.715L427.276 39.2975V35.7783Z" fill="#212121"/>
    <path d="M420.238 52.3394L427.276 42.8168L412.263 48.6131L414.855 52.3394H420.238Z" fill="#212121"/>
    <path d="M427.276 42.8168V39.2975L410.247 45.715L412.263 48.6131L427.276 42.8168Z" fill="#FC9A2D"/>
    <path d="M408.231 39.0905V42.8168L427.276 35.7783V32.0521L408.231 39.0905Z" fill="#FC9A2D"/>
    <path d="M427.276 24.1855L408.231 31.224V34.7432L427.276 27.9118V24.1855Z" fill="#FC9A2D"/>
    <line x1="412.527" y1="24.1855" x2="412.527" y2="1.00003" stroke="black" stroke-width="3"/>
    <line x1="423.292" y1="24.1855" x2="423.292" y2="1.00003" stroke="black" stroke-width="3"/>
    <path d="M326.443 229V194.091H349.148V199.392H332.767V208.869H347.972V214.17H332.767V223.699H349.284V229H326.443ZM360.884 194.091L368.571 206.875H368.844L376.565 194.091H383.776L373.02 211.545L383.946 229H376.616L368.844 216.301H368.571L360.798 229H353.503L364.531 211.545L353.639 194.091H360.884ZM388.74 229V194.091H401.831C404.513 194.091 406.763 194.591 408.581 195.591C410.411 196.591 411.791 197.966 412.723 199.716C413.666 201.455 414.138 203.432 414.138 205.648C414.138 207.886 413.666 209.875 412.723 211.614C411.78 213.352 410.388 214.722 408.547 215.722C406.706 216.71 404.439 217.205 401.746 217.205H393.07V212.006H400.893C402.462 212.006 403.746 211.733 404.746 211.188C405.746 210.642 406.484 209.892 406.962 208.938C407.45 207.983 407.695 206.886 407.695 205.648C407.695 204.409 407.45 203.318 406.962 202.375C406.484 201.432 405.74 200.699 404.729 200.176C403.729 199.642 402.439 199.375 400.859 199.375H395.064V229H388.74ZM450.824 211.545C450.824 215.307 450.119 218.528 448.71 221.21C447.313 223.881 445.403 225.926 442.983 227.347C440.574 228.767 437.841 229.477 434.784 229.477C431.727 229.477 428.989 228.767 426.568 227.347C424.159 225.915 422.25 223.864 420.841 221.193C419.443 218.511 418.744 215.295 418.744 211.545C418.744 207.784 419.443 204.568 420.841 201.898C422.25 199.216 424.159 197.165 426.568 195.744C428.989 194.324 431.727 193.614 434.784 193.614C437.841 193.614 440.574 194.324 442.983 195.744C445.403 197.165 447.313 199.216 448.71 201.898C450.119 204.568 450.824 207.784 450.824 211.545ZM444.466 211.545C444.466 208.898 444.051 206.665 443.222 204.847C442.403 203.017 441.267 201.636 439.812 200.705C438.358 199.761 436.682 199.29 434.784 199.29C432.886 199.29 431.21 199.761 429.756 200.705C428.301 201.636 427.159 203.017 426.33 204.847C425.511 206.665 425.102 208.898 425.102 211.545C425.102 214.193 425.511 216.432 426.33 218.261C427.159 220.08 428.301 221.46 429.756 222.403C431.21 223.335 432.886 223.801 434.784 223.801C436.682 223.801 438.358 223.335 439.812 222.403C441.267 221.46 442.403 220.08 443.222 218.261C444.051 216.432 444.466 214.193 444.466 211.545ZM456.803 229V194.091H469.893C472.575 194.091 474.825 194.557 476.643 195.489C478.473 196.42 479.854 197.727 480.786 199.409C481.729 201.08 482.2 203.028 482.2 205.256C482.2 207.494 481.723 209.437 480.768 211.085C479.825 212.722 478.433 213.989 476.592 214.886C474.751 215.773 472.49 216.216 469.808 216.216H460.484V210.966H468.956C470.524 210.966 471.808 210.75 472.808 210.318C473.808 209.875 474.547 209.233 475.024 208.392C475.513 207.54 475.757 206.494 475.757 205.256C475.757 204.017 475.513 202.96 475.024 202.085C474.536 201.199 473.791 200.528 472.791 200.074C471.791 199.608 470.501 199.375 468.922 199.375H463.126V229H456.803ZM474.837 213.182L483.479 229H476.422L467.933 213.182H474.837ZM486.487 199.392V194.091H514.339V199.392H503.55V229H497.277V199.392H486.487Z"
          fill="white"/>
    <defs>
        <linearGradient id="paint0_linear_339_10" x1="260.009" y1="361.204" x2="1.80588e-05" y2="202.217"
                        gradientUnits="userSpaceOnUse">
            <stop stop-color="#2B67BE"/>
            <stop offset="1" stop-color="#33588B"/>
        </linearGradient>
        <linearGradient id="paint1_linear_339_10" x1="549" y1="291.647" x2="288.991" y2="132.661"
                        gradientUnits="userSpaceOnUse">
            <stop stop-color="#FD8B06"/>
            <stop offset="1" stop-color="#F46129"/>
        </linearGradient>
    </defs>
</svg>
