<svg width="62" height="62" viewBox="0 0 62 62" fill="none" xmlns="http://www.w3.org/2000/svg">
    <g filter="url(#filter0_d_56_269)">
        <rect x="4" width="54" height="54" fill="white"/>
        <path d="M30.1499 40.8725L31.2799 41.75L31.9099 42.2057C32.2091 42.4087 32.5676 42.47 32.9069 42.3762C33.2461 42.2823 33.5385 42.041 33.7199 41.705C33.8087 41.5382 33.8674 41.3532 33.8926 41.1608C33.9178 40.9683 33.909 40.7722 33.8667 40.5836C33.8245 40.395 33.7496 40.2176 33.6463 40.0616C33.543 39.9056 33.4134 39.774 33.2649 39.6744L31.8249 38.7688"
              stroke="#00A3E5" stroke-linecap="round" stroke-linejoin="round"/>
        <path d="M30.255 22.3494C29.5912 21.8958 28.8396 21.6302 28.0645 21.5753C27.2894 21.5204 26.5141 21.678 25.805 22.0344C25.032 22.4215 24.1796 22.5635 23.34 22.445L21.1 22.13L19 20.9375L16.5 27.6875L18.455 29.5606L21.325 33.5994"
              stroke="#00A3E5" stroke-linecap="round" stroke-linejoin="round"/>
        <path d="M31.9648 38.8588L33.9648 40.13C34.2497 40.3311 34.5901 40.4078 34.9218 40.3456C35.2535 40.2834 35.5534 40.0866 35.7648 39.7925C35.8755 39.6263 35.954 39.436 35.9954 39.2337C36.0369 39.0314 36.0403 38.8215 36.0054 38.6177C35.9706 38.4138 35.8983 38.2203 35.7931 38.0497C35.688 37.8791 35.5523 37.7351 35.3948 37.6269L36.0798 38.0881C36.3643 38.2904 36.7051 38.3678 37.0371 38.3056C37.369 38.2434 37.669 38.0458 37.8798 37.7506C37.9942 37.5835 38.0757 37.3909 38.1187 37.1855C38.1617 36.9802 38.1654 36.767 38.1294 36.5599C38.0935 36.3529 38.0187 36.1569 37.9102 35.9849C37.8016 35.8129 37.6617 35.6689 37.4998 35.5625L38.1898 36.0238C38.4743 36.2261 38.8151 36.3035 39.1471 36.2412C39.479 36.179 39.779 35.9814 39.9898 35.6863C40.1008 35.5197 40.1793 35.3287 40.2205 35.1258C40.2616 34.9229 40.2643 34.7125 40.2285 34.5083C40.1926 34.3041 40.119 34.1106 40.0125 33.9405C39.9059 33.7703 39.7687 33.6273 39.6098 33.5206L39.3898 33.3688L35.8048 30.9894"
              stroke="#00A3E5" stroke-linecap="round" stroke-linejoin="round"/>
        <path d="M42.75 41.1875C43.4404 41.1875 44 40.5579 44 39.7812C44 39.0046 43.4404 38.375 42.75 38.375C42.0596 38.375 41.5 39.0046 41.5 39.7812C41.5 40.5579 42.0596 41.1875 42.75 41.1875Z"
              stroke="#00A3E5" stroke-linecap="round" stroke-linejoin="round"/>
        <path d="M44.0352 17.5625C44.0422 17.6829 44.0169 17.8029 43.9625 17.9069C43.9081 18.0109 43.8272 18.0942 43.7303 18.1458C43.6334 18.1975 43.5249 18.2152 43.4189 18.1966C43.3129 18.178 43.2144 18.124 43.136 18.0416C43.0576 17.9592 43.0031 17.8522 42.9795 17.7345C42.9558 17.6168 42.9642 17.4939 43.0034 17.3816C43.0427 17.2693 43.111 17.1729 43.1996 17.1048C43.2882 17.0368 43.3929 17.0003 43.5002 17C43.6362 16.9997 43.7672 17.0577 43.8666 17.1621C43.966 17.2666 44.0263 17.4098 44.0352 17.5625Z"
              fill="#00A3E5"/>
        <path d="M42.095 20.4425L46.06 29.375L40.06 33.5431L33 29.375C32.14 29.0825 31.39 28.3175 31.225 26.6131L27.595 26.9844C27.2488 27.0204 26.902 26.9232 26.6113 26.7086C26.3207 26.494 26.1034 26.1748 25.995 25.8031C25.9298 25.585 25.9041 25.3543 25.9193 25.1248C25.9345 24.8953 25.9903 24.6715 26.0834 24.4666C26.1766 24.2617 26.3052 24.0798 26.4618 23.9316C26.6183 23.7835 26.7996 23.672 26.995 23.6038L32.265 21.7306C32.7636 21.5526 33.2923 21.5082 33.8088 21.601C34.3254 21.6938 34.8155 21.9212 35.24 22.265L35.43 22.4169C35.8909 22.7849 36.4319 23.0055 36.9955 23.055C37.559 23.1045 38.1239 22.9812 38.63 22.6981L42.095 20.4425Z"
              stroke="#00A3E5" stroke-linecap="round" stroke-linejoin="round"/>
        <path d="M36.075 29.0657C35.2414 29.4192 34.3469 29.5539 33.46 29.4594L33 29.375" fill="white"/>
        <path d="M36.075 29.0657C35.2414 29.4192 34.3469 29.5539 33.46 29.4594L33 29.375" stroke="#00A3E5"
              stroke-linecap="round" stroke-linejoin="round"/>
        <path d="M21.3998 35.7987C21.1525 35.5193 21.0137 35.1411 21.0137 34.7468C21.0137 34.3525 21.1525 33.9743 21.3998 33.6949L22.0248 32.9918C22.2732 32.7136 22.6094 32.5574 22.9598 32.5574C23.3103 32.5574 23.6465 32.7136 23.8948 32.9918C24.1422 33.2712 24.281 33.6494 24.281 34.0437C24.281 34.438 24.1422 34.8162 23.8948 35.0956L23.2698 35.7987C23.0215 36.0769 22.6853 36.2331 22.3348 36.2331C21.9844 36.2331 21.6482 36.0769 21.3998 35.7987Z"
              stroke="#00A3E5" stroke-linecap="round" stroke-linejoin="round"/>
        <path d="M23.27 37.8969C23.023 37.6185 22.8843 37.2412 22.8843 36.8478C22.8843 36.4544 23.023 36.0771 23.27 35.7987L24.5 34.3981C24.6223 34.259 24.7679 34.1486 24.9284 34.0732C25.0889 33.9978 25.2611 33.959 25.435 33.959C25.6089 33.959 25.7811 33.9978 25.9416 34.0732C26.1021 34.1486 26.2477 34.259 26.37 34.3981C26.617 34.6765 26.7558 35.0538 26.7558 35.4472C26.7558 35.8405 26.617 36.2178 26.37 36.4962L25.125 37.8969C24.8786 38.1727 24.5451 38.3275 24.1975 38.3275C23.8499 38.3275 23.5164 38.1727 23.27 37.8969Z"
              stroke="#00A3E5" stroke-linecap="round" stroke-linejoin="round"/>
        <path d="M25.1401 40.0006C24.8928 39.7212 24.7539 39.343 24.7539 38.9487C24.7539 38.5544 24.8928 38.1762 25.1401 37.8968L27.0001 35.7987C27.2484 35.5205 27.5846 35.3643 27.9351 35.3643C28.2856 35.3643 28.6217 35.5205 28.8701 35.7987C29.1171 36.0771 29.2558 36.4544 29.2558 36.8478C29.2558 37.2411 29.1171 37.6184 28.8701 37.8968L27.0001 40.0006C26.7528 40.2767 26.4185 40.4317 26.0701 40.4317C25.7216 40.4317 25.3873 40.2767 25.1401 40.0006Z"
              stroke="#00A3E5" stroke-linecap="round" stroke-linejoin="round"/>
        <path d="M26.9999 42.1044C26.7526 41.825 26.6138 41.4468 26.6138 41.0525C26.6138 40.6582 26.7526 40.28 26.9999 40.0006L29.4999 37.1881C29.7474 36.9102 30.0828 36.7542 30.4324 36.7542C30.7821 36.7542 31.1175 36.9102 31.3649 37.1881C31.4886 37.3257 31.5868 37.4895 31.6538 37.6701C31.7208 37.8506 31.7553 38.0443 31.7553 38.24C31.7553 38.4356 31.7208 38.6294 31.6538 38.8099C31.5868 38.9905 31.4886 39.1543 31.3649 39.2919L28.8649 42.1044C28.6168 42.3809 28.2817 42.536 27.9324 42.536C27.5832 42.536 27.2481 42.3809 26.9999 42.1044Z"
              stroke="#00A3E5" stroke-linecap="round" stroke-linejoin="round"/>
        <path d="M35.385 37.6213L33.875 36.6031" stroke="#00A3E5" stroke-linecap="round" stroke-linejoin="round"/>
        <path d="M35.23 34.0551L37.325 35.4613" stroke="#00A3E5" stroke-linecap="round" stroke-linejoin="round"/>
        <path d="M31 17.5625C32.6569 17.5625 34 16.0515 34 14.1875C34 12.3235 32.6569 10.8125 31 10.8125C29.3431 10.8125 28 12.3235 28 14.1875C28 16.0515 29.3431 17.5625 31 17.5625Z"
              stroke="#00A3E5" stroke-linecap="round" stroke-linejoin="round"/>
        <path d="M30 14.75L30.75 15.3125L32 13.0625" stroke="#00A3E5" stroke-linecap="round" stroke-linejoin="round"/>
    </g>
    <defs>
        <filter id="filter0_d_56_269" x="0" y="0" width="62" height="62" filterUnits="userSpaceOnUse"
                color-interpolation-filters="sRGB">
            <feFlood flood-opacity="0" result="BackgroundImageFix"/>
            <feColorMatrix in="SourceAlpha" type="matrix" values="0 0 0 0 0 0 0 0 0 0 0 0 0 0 0 0 0 0 127 0"
                           result="hardAlpha"/>
            <feOffset dy="4"/>
            <feGaussianBlur stdDeviation="2"/>
            <feComposite in2="hardAlpha" operator="out"/>
            <feColorMatrix type="matrix" values="0 0 0 0 0 0 0 0 0 0 0 0 0 0 0 0 0 0 0.25 0"/>
            <feBlend mode="normal" in2="BackgroundImageFix" result="effect1_dropShadow_56_269"/>
            <feBlend mode="normal" in="SourceGraphic" in2="effect1_dropShadow_56_269" result="shape"/>
        </filter>
    </defs>
</svg>
