<svg width="62" height="62" viewBox="0 0 62 62" fill="none" xmlns="http://www.w3.org/2000/svg">
    <g filter="url(#filter0_d_56_291)">
        <rect x="4" width="54" height="54" fill="white"/>
        <g clip-path="url(#clip0_56_291)">
            <path d="M27.4162 24.0543L27.4081 25.0906C27.4074 25.1793 27.3717 25.2642 27.3087 25.3267C27.2457 25.3892 27.1606 25.4243 27.0718 25.4243C27.0277 25.4241 26.984 25.4151 26.9432 25.3979C26.9025 25.3808 26.8656 25.3557 26.8346 25.3243C26.8036 25.2928 26.7791 25.2555 26.7626 25.2145C26.746 25.1736 26.7377 25.1298 26.7381 25.0856L26.7456 24.0506C26.75 23.1712 27.0263 22.3147 27.5367 21.5986C28.0471 20.8825 28.7664 20.3418 29.5962 20.0506C29.0797 19.7381 28.6796 19.2651 28.457 18.7039C28.2344 18.1428 28.2016 17.5242 28.3635 16.9426C28.5255 16.361 28.8732 15.8483 29.3538 15.4829C29.8343 15.1175 30.4212 14.9193 31.025 14.9187H31.0362C31.6405 14.9225 32.2269 15.1239 32.706 15.4923C33.185 15.8607 33.5303 16.3757 33.6891 16.9587C33.848 17.5418 33.8116 18.1608 33.5856 18.7212C33.3596 19.2817 32.9563 19.7527 32.4375 20.0625C33.2643 20.361 33.9785 20.908 34.482 21.6286C34.9856 22.3491 35.2538 23.2078 35.25 24.0868L35.2431 25.1231C35.2426 25.2119 35.2069 25.297 35.1439 25.3596C35.0809 25.4223 34.9957 25.4575 34.9068 25.4575C34.8627 25.4572 34.819 25.4482 34.7782 25.4311C34.7375 25.4139 34.7006 25.3889 34.6696 25.3574C34.6386 25.3259 34.6141 25.2886 34.5976 25.2477C34.581 25.2067 34.5727 25.1629 34.5731 25.1187L34.58 24.0837C34.582 23.6132 34.4913 23.1468 34.3131 22.7114C34.1349 22.2759 33.8726 21.8798 33.5412 21.5457C33.2099 21.2116 32.816 20.9461 32.382 20.7643C31.9479 20.5825 31.4824 20.488 31.0118 20.4862H31C30.0524 20.4868 29.1436 20.8625 28.4721 21.5311C27.8006 22.1996 27.421 23.1068 27.4162 24.0543ZM33.1168 17.6925C33.1183 17.1377 32.8998 16.6051 32.5092 16.2112C32.1186 15.8173 31.5878 15.5943 31.0331 15.5912H31.025C30.4697 15.59 29.9366 15.8095 29.5432 16.2014C29.1497 16.5932 28.928 17.1253 28.9268 17.6806C28.9257 18.2359 29.1452 18.7689 29.537 19.1624C29.9288 19.5558 30.4609 19.7775 31.0162 19.7787C31.5462 19.8112 32.1012 19.5662 32.4975 19.1725C32.6938 18.9792 32.8496 18.7488 32.956 18.4947C33.0623 18.2406 33.117 17.9679 33.1168 17.6925Z"
                  fill="#20AEE8"/>
            <path d="M34.7056 30.9176H38.0837V28.7826C37.1748 29.1574 36.2334 29.4478 35.2712 29.6501C34.8773 29.7367 34.4651 29.6632 34.1253 29.4459C33.7855 29.2286 33.546 28.8852 33.4594 28.4913C33.3727 28.0974 33.4462 27.6852 33.6635 27.3454C33.8808 27.0056 34.2242 26.766 34.6181 26.6794C37.3175 26.0726 38.5794 24.6169 39.1619 23.5026C39.3349 23.1691 39.5865 22.8827 39.895 22.6682C39.2494 22.3714 38.7248 21.8626 38.4084 21.2265C38.092 20.5903 38.0029 19.8649 38.1558 19.1711C38.3087 18.4772 38.6945 17.8565 39.249 17.4123C39.8034 16.968 40.4933 16.7268 41.2038 16.7289C41.9143 16.731 42.6027 16.9761 43.1546 17.4236C43.7065 17.8711 44.0887 18.494 44.2376 19.1887C44.3864 19.8835 44.2931 20.6083 43.973 21.2426C43.6529 21.877 43.1254 22.3827 42.4781 22.6757C42.7663 22.8771 43.0017 23.145 43.1643 23.4567C43.327 23.7684 43.4121 24.1147 43.4125 24.4663V31.3644C43.4115 32.1019 43.1181 32.8088 42.5966 33.3302C42.075 33.8516 41.368 34.1449 40.6306 34.1457H35.465V38.7451C35.465 38.8342 35.4296 38.9198 35.3665 38.9828C35.3034 39.0459 35.2179 39.0813 35.1287 39.0813C35.0395 39.0813 34.954 39.0459 34.891 38.9828C34.8279 38.9198 34.7925 38.8342 34.7925 38.7451V33.8126C34.7925 33.7234 34.8279 33.6379 34.891 33.5748C34.954 33.5117 35.0395 33.4763 35.1287 33.4763H40.6287C41.1879 33.4756 41.7239 33.2533 42.1193 32.858C42.5148 32.4627 42.7373 31.9267 42.7381 31.3676V24.4663C42.7376 24.0652 42.578 23.6807 42.2943 23.3971C42.0107 23.1136 41.6261 22.9541 41.225 22.9538H41.125C40.5625 22.9538 40.0375 23.2838 39.7594 23.8144C39.1112 25.0551 37.7187 26.6726 34.7669 27.3357C34.6561 27.3576 34.5508 27.4013 34.4572 27.4645C34.3635 27.5276 34.2835 27.6087 34.2216 27.7032C34.1598 27.7977 34.1174 27.9036 34.097 28.0146C34.0767 28.1257 34.0786 28.2397 34.1029 28.35C34.1272 28.4602 34.1732 28.5646 34.2383 28.6568C34.3034 28.749 34.3863 28.8274 34.4821 28.8872C34.5779 28.947 34.6846 28.987 34.7961 29.005C34.9076 29.023 35.0215 29.0186 35.1312 28.9919C36.3812 28.7213 38.1475 28.2044 39.4437 27.2788C40.3812 26.6088 40.9137 25.8263 41.0275 24.9532C41.0326 24.9093 41.0465 24.867 41.0682 24.8285C41.09 24.7901 41.1191 24.7564 41.1541 24.7294C41.189 24.7024 41.2289 24.6826 41.2716 24.6713C41.3143 24.6599 41.3587 24.6571 41.4025 24.6632C41.4905 24.6749 41.5703 24.7208 41.6246 24.791C41.6789 24.8613 41.7033 24.9501 41.6925 25.0382C41.5531 26.1007 40.9269 27.0382 39.8319 27.8238C39.4901 28.066 39.1303 28.2816 38.7556 28.4688V31.2513C38.7556 31.3405 38.7202 31.426 38.6571 31.4891C38.5941 31.5521 38.5085 31.5876 38.4194 31.5876H34.705C34.1982 31.5884 33.7124 31.7902 33.3542 32.1487C32.996 32.5073 32.7947 32.9933 32.7944 33.5001V38.7438C32.7944 38.833 32.7589 38.9185 32.6959 38.9816C32.6328 39.0446 32.5473 39.0801 32.4581 39.0801C32.3689 39.0801 32.2834 39.0446 32.2203 38.9816C32.1573 38.9185 32.1219 38.833 32.1219 38.7438V33.5001C32.1228 32.8152 32.3954 32.1587 32.8798 31.6746C33.3642 31.1905 34.0208 30.9182 34.7056 30.9176ZM43.6362 19.8413C43.6362 19.3592 43.4933 18.8879 43.2254 18.4871C42.9576 18.0863 42.5769 17.7738 42.1315 17.5893C41.6861 17.4049 41.196 17.3566 40.7232 17.4506C40.2504 17.5447 39.816 17.7768 39.4752 18.1177C39.1343 18.4586 38.9021 18.8929 38.8081 19.3658C38.714 19.8386 38.7623 20.3287 38.9468 20.7741C39.1313 21.2195 39.4437 21.6002 39.8445 21.868C40.2454 22.1358 40.7166 22.2788 41.1987 22.2788C41.8448 22.2775 42.464 22.0203 42.9208 21.5634C43.3777 21.1066 43.6349 20.4874 43.6362 19.8413Z"
                  fill="#20AEE8"/>
            <path d="M19.52 22.6757C18.8725 22.3826 18.3448 21.8768 18.0246 21.2424C17.7044 20.6079 17.611 19.8829 17.7599 19.188C17.9088 18.4931 18.291 17.8701 18.843 17.4224C19.395 16.9748 20.0836 16.7296 20.7943 16.7276C21.505 16.7255 22.195 16.9667 22.7496 17.4111C23.3042 17.8555 23.69 18.4763 23.8429 19.1704C23.9959 19.8644 23.9066 20.5899 23.5901 21.2262C23.2736 21.8625 22.7489 22.3714 22.1031 22.6682C22.4111 22.882 22.6625 23.1675 22.8356 23.5C23.4187 24.6144 24.6812 26.0707 27.38 26.6769C27.7739 26.7637 28.1173 27.0034 28.3344 27.3433C28.5516 27.6832 28.6249 28.0955 28.5381 28.4894C28.4513 28.8833 28.2116 29.2267 27.8717 29.4438C27.5318 29.661 27.1196 29.7343 26.7256 29.6475C25.7635 29.4454 24.822 29.155 23.9131 28.78V30.915H27.2944C27.9791 30.9165 28.6353 31.1895 29.1191 31.6741C29.6028 32.1586 29.8747 32.8153 29.875 33.5V38.7438C29.875 38.833 29.8396 38.9185 29.7765 38.9815C29.7135 39.0446 29.6279 39.08 29.5387 39.08C29.4496 39.08 29.364 39.0446 29.301 38.9815C29.2379 38.9185 29.2025 38.833 29.2025 38.7438V33.5C29.202 32.9934 29.0006 32.5076 28.6424 32.1493C28.2842 31.791 27.7985 31.5894 27.2919 31.5888H23.5769C23.4877 31.5888 23.4022 31.5533 23.3391 31.4903C23.2761 31.4272 23.2406 31.3417 23.2406 31.2525V28.4707C22.8661 28.2837 22.5065 28.0682 22.165 27.8263C21.07 27.0432 20.4437 26.1056 20.3044 25.0407C20.2965 24.954 20.3225 24.8677 20.3769 24.7997C20.4313 24.7318 20.5098 24.6876 20.5961 24.6762C20.6824 24.6649 20.7697 24.6874 20.8397 24.7391C20.9098 24.7907 20.9571 24.8674 20.9719 24.9532C21.0856 25.8282 21.6188 26.6088 22.5556 27.2788C23.85 28.2044 25.6131 28.7213 26.865 28.9919C26.9743 29.0174 27.0876 29.021 27.1983 29.0024C27.309 28.9838 27.4149 28.9434 27.5098 28.8836C27.6048 28.8238 27.6869 28.7457 27.7515 28.6539C27.8161 28.5621 27.8618 28.4584 27.886 28.3488C27.9102 28.2392 27.9124 28.1259 27.8925 28.0154C27.8725 27.905 27.8309 27.7996 27.7699 27.7053C27.709 27.6111 27.6299 27.5299 27.5373 27.4664C27.4448 27.403 27.3405 27.3585 27.2306 27.3357C24.28 26.6732 22.8862 25.055 22.2375 23.8144C21.96 23.2838 21.4369 22.9538 20.8725 22.9538H20.7675C20.3666 22.9543 19.9822 23.1138 19.6988 23.3974C19.4153 23.6809 19.256 24.0653 19.2556 24.4663V31.3644C19.2565 31.9235 19.479 32.4595 19.8744 32.8548C20.2698 33.2501 20.8059 33.4725 21.365 33.4732H26.865C26.9542 33.4732 27.0397 33.5086 27.1028 33.5716C27.1658 33.6347 27.2013 33.7202 27.2013 33.8094V38.7469C27.1975 38.8337 27.1604 38.9156 27.0977 38.9757C27.035 39.0357 26.9515 39.0693 26.8647 39.0693C26.7779 39.0693 26.6944 39.0357 26.6317 38.9757C26.569 38.9156 26.5319 38.8337 26.5281 38.7469V34.1457H21.3638C20.6263 34.1448 19.9193 33.8516 19.3978 33.3302C18.8763 32.8088 18.5829 32.1018 18.5819 31.3644V24.4663C18.5827 24.1144 18.6684 23.7678 18.8317 23.4561C18.995 23.1444 19.2311 22.8766 19.52 22.6757ZM23.2431 19.8413C23.2431 19.3592 23.1002 18.8879 22.8323 18.4871C22.5645 18.0862 22.1838 17.7738 21.7384 17.5893C21.293 17.4048 20.8029 17.3566 20.3301 17.4506C19.8573 17.5447 19.4229 17.7768 19.0821 18.1177C18.7412 18.4586 18.509 18.8929 18.415 19.3657C18.3209 19.8386 18.3692 20.3287 18.5537 20.7741C18.7382 21.2195 19.0506 21.6001 19.4514 21.868C19.8523 22.1358 20.3235 22.2788 20.8056 22.2788C21.4516 22.2773 22.0708 22.02 22.5276 21.5632C22.9844 21.1064 23.2416 20.4873 23.2431 19.8413Z"
                  fill="#20AEE8"/>
        </g>
    </g>
    <defs>
        <filter id="filter0_d_56_291" x="0" y="0" width="62" height="62" filterUnits="userSpaceOnUse"
                color-interpolation-filters="sRGB">
            <feFlood flood-opacity="0" result="BackgroundImageFix"/>
            <feColorMatrix in="SourceAlpha" type="matrix" values="0 0 0 0 0 0 0 0 0 0 0 0 0 0 0 0 0 0 127 0"
                           result="hardAlpha"/>
            <feOffset dy="4"/>
            <feGaussianBlur stdDeviation="2"/>
            <feComposite in2="hardAlpha" operator="out"/>
            <feColorMatrix type="matrix" values="0 0 0 0 0 0 0 0 0 0 0 0 0 0 0 0 0 0 0.25 0"/>
            <feBlend mode="normal" in2="BackgroundImageFix" result="effect1_dropShadow_56_291"/>
            <feBlend mode="normal" in="SourceGraphic" in2="effect1_dropShadow_56_291" result="shape"/>
        </filter>
        <clipPath id="clip0_56_291">
            <rect width="32" height="32" fill="white" transform="translate(15 11)"/>
        </clipPath>
    </defs>
</svg>
